<?xml version="1.0" encoding="UTF-8"?>
<svg id="Layer_2" data-name="Layer 2" xmlns="http://www.w3.org/2000/svg" viewBox="0 0 800 600.01">
  <defs>
    <style>
      .cls-1 {
        fill: #fff;
        fill-rule: evenodd;
        stroke-width: 0px;
      }
    </style>
  </defs>
  <g id="Layer_1-2" data-name="Layer 1">
    <g id="Page-1">
      <g id="Dribbble-Light-Preview">
        <g id="icons">
          <path id="adobe_cloud-_131_" data-name="adobe_cloud-[#131]" class="cls-1" d="M332.18,542.91c-8.25-7.77-39.11-37.36-53.49-51.48-3.21-3.12-6.17-4.69-10.7-4.55-131.86,3.24-180.86-110.62-149.69-192.81,23.88-62.99,90.03-101.33,155.22-89.49,54.73,9.88,68.43,31.74,154.06,119.65,23.68,24.36,62.82-12.03,37.9-37.68-27.24-28.01-53.85-56.78-82.18-83.59-55.01-52.11-119.84-67.62-191.52-45.43-96.44,29.75-152.89,130.9-130.86,230.72,20.07,90.98,98.36,154.79,190,154.86,6.77,0,74.48.18,81.25-.2M351.98,112.95c.48.66.6.94.8,1.05,16.51,8.22,32.17,17.95,47.08,28.91.92.68,3.25.41,4.41-.33,81.61-52.54,186.59-34.43,245.97,43.03,62.02,80.78,43.15,182.66-8.17,240.21-78.25,87.66-199.37,78.59-267.24,8.95-36.66-37.6-73.56-74.96-110.3-112.5-28.89-29.41-66.19,11.64-40.11,37.73,130.7,130.29,152.53,169.16,245.21,181.64,81.74,10.96,163.03-18.22,218.88-86.68,76.73-94.22,70.4-229.22-3.69-313.77-96.24-109.77-243.08-104.67-332.83-28.24M800,286.39c0,160.68-96.56,292.87-281.47,313.55-20.27,0-265.96.39-285.79-.78C-14.51,583.32-94.36,234.57,139.67,115.61c42.63-21.7,92.79-30.86,147.93-23.36,1.52.23,3.69-.45,4.77-1.56C456.55-79.72,769.27-7.48,800,286.39"/>
        </g>
      </g>
    </g>
  </g>
</svg>