<?xml version="1.0" encoding="UTF-8"?>
<svg id="Layer_2" data-name="Layer 2" xmlns="http://www.w3.org/2000/svg" viewBox="0 0 95.88 104.93">
  <defs>
    <style>
      .cls-1 {
        fill: #fff;
        stroke-width: 0px;
      }
    </style>
  </defs>
  <g id="Layer_1-2" data-name="Layer 1">
    <g>
      <path class="cls-1" d="M23.86,6.78c-1.13,0-2.04.28-2.71.85-.68.57-1.23,1.3-1.64,2.2-.42.9-.7,1.94-.85,3.11-.15,1.17-.23,2.36-.23,3.56v20.69c0,2.64-.4,4.88-1.19,6.73-.79,1.85-1.72,3.37-2.77,4.58-1.06,1.21-2.13,2.11-3.22,2.71-1.09.6-1.98.98-2.66,1.13v.34c.68.08,1.56.38,2.66.9,1.09.53,2.17,1.38,3.22,2.54,1.05,1.17,1.98,2.7,2.77,4.58.79,1.89,1.19,4.26,1.19,7.12v20.58c0,1.13.07,2.28.23,3.45.15,1.17.43,2.22.85,3.17.41.94.96,1.7,1.64,2.26.68.56,1.58.85,2.71.85h5.65v6.78h-7.92c-1.43,0-2.87-.32-4.3-.96-1.43-.64-2.73-1.58-3.9-2.83-1.17-1.24-2.13-2.79-2.88-4.64-.75-1.85-1.13-3.98-1.13-6.39v-20.47c0-2.04-.26-3.88-.79-5.54-.53-1.66-1.23-3.05-2.09-4.18-.87-1.13-1.87-2-3-2.6-1.13-.6-2.3-.9-3.51-.9v-7.69c1.21,0,2.38-.32,3.51-.96,1.13-.64,2.13-1.54,3-2.71.87-1.17,1.56-2.58,2.09-4.24.53-1.66.79-3.47.79-5.43V14.81c0-2.41.38-4.54,1.13-6.39.75-1.85,1.71-3.39,2.88-4.64,1.17-1.24,2.47-2.19,3.9-2.83,1.43-.64,2.86-.96,4.3-.96h7.92v6.78h-5.65Z"/>
      <path class="cls-1" d="M72.02,98.14c1.13,0,2.04-.28,2.71-.85.68-.57,1.22-1.3,1.64-2.21.41-.9.7-1.94.85-3.11.15-1.17.23-2.36.23-3.56v-20.58c0-2.64.4-4.88,1.19-6.73.79-1.85,1.71-3.37,2.77-4.58,1.05-1.21,2.13-2.11,3.22-2.71,1.09-.6,1.98-.98,2.66-1.13v-.34c-.68-.07-1.57-.38-2.66-.9-1.09-.53-2.17-1.37-3.22-2.54-1.06-1.17-1.98-2.69-2.77-4.58-.79-1.88-1.19-4.26-1.19-7.12v-20.47c0-1.28-.08-2.51-.23-3.67-.15-1.17-.43-2.22-.85-3.17-.41-.94-.96-1.7-1.64-2.26-.68-.57-1.58-.85-2.71-.85h-5.65V0h7.91c1.43,0,2.86.32,4.3.96,1.43.64,2.73,1.58,3.9,2.83,1.17,1.24,2.13,2.79,2.88,4.64.75,1.85,1.13,3.98,1.13,6.39v20.58c0,2.04.26,3.88.79,5.54.53,1.66,1.22,3.07,2.09,4.24.87,1.17,1.87,2.05,3,2.66,1.13.6,2.3.9,3.5.9v7.69c-1.21,0-2.37.32-3.5.96-1.13.64-2.13,1.55-3,2.71-.87,1.17-1.57,2.56-2.09,4.18-.53,1.62-.79,3.41-.79,5.37v20.47c0,2.41-.38,4.54-1.13,6.39-.75,1.85-1.72,3.39-2.88,4.64-1.17,1.24-2.47,2.19-3.9,2.83-1.43.64-2.87.96-4.3.96h-7.91v-6.78h5.65Z"/>
    </g>
  </g>
</svg>