<?xml version="1.0" encoding="UTF-8"?>
<svg id="Layer_2" data-name="Layer 2" xmlns="http://www.w3.org/2000/svg" viewBox="0 0 96 114">
  <defs>
    <style>
      .cls-1 {
        fill: none;
        stroke: #fff;
        stroke-linecap: round;
        stroke-linejoin: round;
        stroke-width: 6px;
      }
    </style>
  </defs>
  <g id="Layer_1-2" data-name="Layer 1">
    <g>
      <path class="cls-1" d="M34.75,111v-15.36l.2-10.91c.24-3.39,1.57-6.59,3.74-9.07.03-.04.06-.07.1-.11.08-.09.03-.24-.1-.26h0c-14.54-1.81-29.69-7.95-29.69-34.69-.09-6.58,2.05-12.97,6.02-17.97.14-.18.28-.35.42-.52h0c.19-.22.25-.53.16-.8,0-.02-.01-.03-.02-.05-.1-.32-.19-.64-.27-.96-1.46-5.51-1.15-11.4.91-16.71.02-.04.03-.08.05-.12.08-.2.24-.34.44-.38h0c1.29-.23,6.5-.54,16.48,6.35.31.21.63.44.95.66h0c.23.17.52.22.8.14,0,0,.02,0,.03,0,.54-.15,1.07-.3,1.61-.43,9.48-2.41,19.36-2.41,28.85,0,.51.13,1.02.27,1.53.41.01,0,.02,0,.03,0,.32.09.67.03.94-.16h0c.3-.21.59-.42.88-.62,9.95-6.87,15.13-6.58,16.43-6.35h0c.21.04.37.19.45.39.01.03.02.05.03.08,2.09,5.32,2.42,11.22.96,16.75-.09.33-.18.66-.28.98h0c-.09.29-.03.61.17.85,0,0,.01.01.02.02.13.16.26.32.39.48,3.97,5.01,6.12,11.39,6.02,17.97,0,26.88-15.26,32.86-29.87,34.49h0c-.08,0-.12.11-.07.17.02.02.04.05.07.07,1.47,1.64,2.62,3.59,3.36,5.73.77,2.23,1.09,4.62.92,6.99v22.95"/>
      <path class="cls-1" d="M3,87c2.21.31,4.33,1.13,6.18,2.38,1.85,1.26,3.4,2.92,4.52,4.86.95,1.73,2.23,3.26,3.77,4.49s3.31,2.15,5.2,2.69c1.89.55,3.87.71,5.83.48,1.96-.23,3.85-.84,5.57-1.8"/>
    </g>
  </g>
</svg>