<?xml version="1.0" encoding="UTF-8"?>
<svg id="Layer_2" data-name="Layer 2" xmlns="http://www.w3.org/2000/svg" viewBox="0 0 97 77">
  <defs>
    <style>
      .cls-1 {
        fill: none;
        stroke: #fff;
        stroke-linecap: round;
        stroke-linejoin: round;
        stroke-width: 7px;
      }
    </style>
  </defs>
  <g id="Layer_1-2" data-name="Layer 1">
    <path class="cls-1" d="M3.5,18.5l27.25,18.17c6.42,4.28,9.62,6.42,13.09,7.25,1.4.37,7.63.37,9.32,0,3.47-.83,6.67-2.97,13.09-7.25l27.25-18.17M19.5,73.5h58c5.6,0,8.4,0,10.54-1.09,1.88-.96,3.41-2.49,4.37-4.37,1.09-2.14,1.09-4.94,1.09-10.54V19.5c0-5.6,0-8.4-1.09-10.54-.96-1.88-2.49-3.41-4.37-4.37-2.14-1.09-4.94-1.09-10.54-1.09H19.5c-5.6,0-8.4,0-10.54,1.09-1.88.96-3.41,2.49-4.37,4.37-1.09,2.14-1.09,4.94-1.09,10.54v38c0,5.6,0,8.4,1.09,10.54.96,1.88,2.49,3.41,4.37,4.37,2.14,1.09,4.94,1.09,10.54,1.09Z"/>
  </g>
</svg>