<?xml version="1.0" encoding="UTF-8"?>
<svg id="Layer_2" data-name="Layer 2" xmlns="http://www.w3.org/2000/svg" viewBox="0 0 97 97">
  <defs>
    <style>
      .cls-1 {
        fill: none;
        stroke: #fff;
        stroke-linecap: round;
        stroke-miterlimit: 133.33;
        stroke-width: 7px;
      }
    </style>
  </defs>
  <g id="Layer_1-2" data-name="Layer 1">
    <path class="cls-1" d="M37.46,10.9l3.65,6.54c3.29,5.9,1.97,13.65-3.22,18.84h0s-6.29,6.29,5.12,17.71c11.41,11.41,17.7,5.12,17.71,5.12h0c5.19-5.19,12.93-6.51,18.84-3.22l6.54,3.65c8.91,4.97,9.97,17.48,2.13,25.31-4.71,4.71-10.48,8.37-16.85,8.61-10.73.41-28.96-2.31-47.25-20.59C5.85,54.58,3.13,36.36,3.54,25.62c.24-6.38,3.91-12.14,8.61-16.85,7.84-7.84,20.34-6.78,25.31,2.13Z"/>
  </g>
</svg>