<?xml version="1.0" encoding="UTF-8"?>
<svg id="Layer_2" data-name="Layer 2" xmlns="http://www.w3.org/2000/svg" viewBox="0 0 120.6 107.2">
  <defs>
    <style>
      .cls-1 {
        fill: #fff;
        stroke-width: 0px;
      }
    </style>
  </defs>
  <g id="Layer_1-2" data-name="Layer 1">
    <g>
      <path class="cls-1" d="M120.6,53.6c0-8.49-9.83-15.63-25.46-20.1,4.02-15.63,2.68-27.69-4.47-32.16-1.79-.89-3.57-1.34-5.81-1.34-6.7,0-15.63,4.91-24.57,13.4C51.37,4.91,42.88,0,35.73,0c-2.23,0-4.02.45-5.81,1.34-6.7,4.47-8.04,16.53-4.47,32.16C10.27,37.97,0,45.56,0,53.6c0,8.49,9.83,15.63,25.46,20.1-3.57,15.63-2.23,28.14,4.91,32.16,1.79.89,3.57,1.34,5.81,1.34,6.7,0,15.63-4.91,24.57-13.4,8.93,8.49,17.42,13.4,24.57,13.4,2.23,0,4.02-.45,5.81-1.34,7.15-4.02,8.49-16.53,4.91-32.16,14.74-4.47,24.57-12.06,24.57-20.1ZM84.87,5.81c1.34,0,2.23,0,2.68.89,3.57,1.79,4.91,8.93,3.57,18.31-.45,2.23-.89,4.91-1.34,7.15-4.91-1.34-9.83-1.79-15.63-2.68-3.13-4.47-6.25-8.49-9.83-12.06,8.04-7.59,15.63-11.61,20.55-11.61ZM76.83,62.98c-1.79,3.13-3.57,6.25-5.81,8.93-3.57.45-7.15.45-10.72.45s-7.15,0-10.72-.45c-1.79-2.68-3.57-5.81-5.81-8.93-1.79-3.13-3.57-6.25-4.91-9.38,1.34-3.13,3.13-6.25,4.91-9.38,1.79-3.13,4.02-6.25,5.81-9.38,3.57-.45,7.15-.45,10.72-.45s7.15,0,10.72.45c1.79,2.68,4.02,5.81,5.81,9.38,1.79,3.13,3.57,6.25,4.91,9.38-1.34,3.13-3.13,6.25-4.91,9.38ZM84.87,60.3c1.34,3.13,2.23,6.25,3.13,8.93-3.13.89-6.25,1.34-9.38,1.79.89-1.79,2.23-3.57,3.13-5.36,1.34-1.34,2.23-3.57,3.13-5.36h0ZM60.3,85.76c-2.23-2.23-4.47-4.91-6.25-7.59h12.51c-1.79,2.68-4.02,5.36-6.25,7.59ZM41.99,71.47c-3.13-.45-6.25-.89-9.38-1.79.89-3.13,2.23-6.25,3.13-8.93.89,1.79,1.79,3.57,3.13,5.36,1.34,1.79,2.23,3.57,3.13,5.36h0ZM35.73,46.9c-1.34-3.13-2.23-6.25-3.57-9.38,3.13-.89,6.25-1.34,9.83-1.79-1.34,1.79-2.23,3.57-3.57,5.36-.45,2.23-1.34,4.02-2.68,5.81ZM60.3,21.44c2.23,2.23,4.02,4.91,6.25,7.15h-12.51c2.23-2.23,4.47-4.91,6.25-7.15ZM81.74,41.09c-1.34-1.79-2.23-3.57-3.57-5.36,3.57.45,6.7.89,9.83,1.79-.89,3.13-2.23,6.25-3.57,9.38-.45-1.79-1.34-3.57-2.68-5.81ZM29.93,24.57c-1.34-9.38,0-16.08,3.57-18.31.89-.45,1.79-.89,2.68-.89,4.91,0,12.06,4.02,20.1,11.61-3.13,3.57-6.7,7.59-9.83,12.06-5.36.45-10.72,1.34-15.63,2.68-.45-2.23-.89-4.91-.89-7.15ZM20.1,65.66c-8.49-3.57-14.29-8.49-14.29-12.06,0-4.02,5.36-8.49,13.85-12.06,2.23-.89,4.47-1.79,7.15-2.23,1.34,4.91,3.13,9.83,5.81,14.74-2.23,4.91-4.02,9.83-5.36,14.29-2.68-.89-4.91-1.79-7.15-2.68h0ZM33.05,100.95c-3.57-1.79-4.91-8.93-3.57-18.31.45-2.23.89-4.91,1.34-7.59,4.91.89,9.83,1.79,15.19,2.23,3.13,4.47,6.7,8.49,9.83,12.06-8.04,7.59-15.19,11.61-20.1,11.61-.89.45-1.79,0-2.68,0h0ZM91.12,82.64c1.34,9.38,0,16.08-3.57,18.31-.89.45-1.79.89-2.68.89-4.91,0-12.06-4.02-20.1-11.61,3.57-3.57,6.7-7.59,9.83-12.06,5.36-.45,10.72-1.34,15.19-2.23.45,1.79.89,4.02,1.34,6.7h0ZM100.95,65.66c-2.23.89-4.47,1.79-7.15,2.23-1.34-4.47-3.13-9.38-5.36-14.29,2.23-4.91,4.02-9.83,5.81-14.74,2.23.89,4.91,1.34,7.15,2.23,8.49,3.57,13.85,8.04,13.85,12.06-.45,4.02-5.81,8.93-14.29,12.51h0Z"/>
      <path class="cls-1" d="M60.75,64.77c6.25,0,11.17-4.91,11.17-11.17s-4.91-11.17-11.17-11.17-11.17,4.91-11.17,11.17,4.91,11.17,11.17,11.17Z"/>
    </g>
  </g>
</svg>