<?xml version="1.0" encoding="UTF-8"?>
<svg id="Layer_2" data-name="Layer 2" xmlns="http://www.w3.org/2000/svg" viewBox="0 0 142.24 106.7">
  <defs>
    <style>
      .cls-1 {
        fill: none;
        stroke: #fff;
        stroke-linejoin: round;
        stroke-width: 6px;
      }

      .cls-2 {
        fill: #fff;
        stroke-width: 0px;
      }
    </style>
  </defs>
  <g id="Layer_1-2" data-name="Layer 1">
    <g>
      <path class="cls-1" d="M70.65,27.34c-10.94,0-17.77,5.86-20.5,17.57,4.1-5.86,8.88-8.05,14.35-6.59,3.12.84,5.35,3.26,7.82,5.94,4.02,4.37,8.67,9.43,18.84,9.43,10.94,0,17.77-5.86,20.5-17.57-4.1,5.86-8.89,8.05-14.35,6.59-3.12-.84-5.35-3.26-7.82-5.94-4.02-4.37-8.67-9.43-18.84-9.43ZM50.15,53.7c-10.94,0-17.77,5.86-20.5,17.57,4.1-5.86,8.88-8.06,14.35-6.59,3.12.84,5.35,3.26,7.82,5.94,4.02,4.37,8.67,9.43,18.84,9.43,10.94,0,17.77-5.86,20.5-17.57-4.1,5.86-8.88,8.06-14.35,6.59-3.12-.84-5.35-3.26-7.82-5.94-4.02-4.37-8.67-9.43-18.84-9.43Z"/>
      <path class="cls-2" d="M0,48.9c2.4,0,4.49-.84,6.25-2.52,1.76-1.68,2.64-4.45,2.64-8.29V15.5c0-2.72.38-5.07,1.14-7.03.76-1.96,1.8-3.58,3.12-4.87,1.32-1.28,2.84-2.2,4.57-2.76C19.44.28,21.23,0,23.07,0h8.17v8.29h-6.13c-1.36,0-2.44.26-3.24.78-.8.52-1.4,1.2-1.8,2.04-.4.84-.68,1.76-.84,2.76-.16,1-.24,2.02-.24,3.06v21.99c0,2.64-.42,4.85-1.26,6.61-.84,1.76-1.86,3.18-3.06,4.26s-2.44,1.9-3.72,2.46c-1.28.56-2.32.88-3.12.96v.24c.8.08,1.84.36,3.12.84,1.28.48,2.52,1.26,3.72,2.34,1.2,1.08,2.22,2.54,3.06,4.39.84,1.84,1.26,4.21,1.26,7.09v21.63c0,1.04.08,2.06.24,3.06.16,1,.44,1.92.84,2.76.4.84,1,1.52,1.8,2.04.8.52,1.88.78,3.24.78h6.13v8.29h-8.17c-1.84,0-3.63-.28-5.35-.84-1.72-.56-3.24-1.48-4.57-2.76-1.32-1.28-2.36-2.88-3.12-4.81-.76-1.92-1.14-4.29-1.14-7.09v-22.11c0-4.08-.88-6.99-2.64-8.71-1.76-1.72-3.84-2.58-6.25-2.58v-8.89Z"/>
      <path class="cls-2" d="M142.24,57.8c-2.4,0-4.49.86-6.25,2.58-1.76,1.72-2.64,4.63-2.64,8.71v22.11c0,2.8-.38,5.17-1.14,7.09-.76,1.92-1.8,3.52-3.12,4.81-1.32,1.28-2.84,2.2-4.57,2.76-1.72.56-3.5.84-5.35.84h-8.17v-8.29h6.13c1.36,0,2.44-.26,3.24-.78.8-.52,1.4-1.2,1.8-2.04.4-.84.68-1.76.84-2.76.16-1,.24-2.02.24-3.06v-21.63c0-2.88.42-5.25,1.26-7.09.84-1.84,1.86-3.3,3.06-4.39,1.2-1.08,2.44-1.86,3.72-2.34,1.28-.48,2.32-.76,3.12-.84v-.24c-.8-.08-1.84-.4-3.12-.96-1.28-.56-2.52-1.38-3.72-2.46s-2.22-2.5-3.06-4.26c-.84-1.76-1.26-3.97-1.26-6.61v-21.99c0-1.04-.08-2.06-.24-3.06-.16-1-.44-1.92-.84-2.76-.4-.84-1-1.52-1.8-2.04-.8-.52-1.88-.78-3.24-.78h-6.13V0h8.17c1.84,0,3.63.28,5.35.84,1.72.56,3.24,1.48,4.57,2.76,1.32,1.28,2.36,2.9,3.12,4.87.76,1.96,1.14,4.31,1.14,7.03v22.59c0,3.84.88,6.61,2.64,8.29,1.76,1.68,3.84,2.52,6.25,2.52v8.89Z"/>
    </g>
  </g>
</svg>